<svg xmlns="http://www.w3.org/2000/svg" viewBox="0 0 94.97 66"><defs><style>.cls-1{fill:#fff;}</style></defs><g id="Capa_2" data-name="Capa 2"><g id="Layer_1" data-name="Layer 1"><g id="Ncmk2m.tif"><path class="cls-1" d="M.27,5.93C.27,4.05-.46,1.45.48.48S4,.26,5.9.26C34.46.26,63,.31,91.58.19c2.7,0,3.62.61,3.15,3.23a14,14,0,0,0,0,2.51C80,15.61,65.31,25.24,50.7,35c-2.37,1.59-4.06,1.59-6.43,0C29.66,25.24,15,15.61.27,5.93Z"/><path class="cls-1" d="M94.7,60.07c0,1.88.74,4.48-.21,5.45s-3.54.22-5.42.22c-28.56,0-57.12,0-85.68.07-2.7,0-3.62-.61-3.14-3.23a14,14,0,0,0,0-2.51c11.34-7.13,22.73-14.18,34-21.43,2.39-1.54,4.33-1.9,6.41.11,4.56,4.42,9.08,4.38,13.63,0,2.09-2,4-1.65,6.41-.11C72,45.89,83.36,52.94,94.7,60.07Z"/><path class="cls-1" d="M94.7,53.77c-10.38-5.93-20.25-12.67-30.41-19-2-1.25-.87-2.13.39-3l30-19.61Z"/><path class="cls-1" d="M.27,12.23q15,9.81,30,19.62c1.27.83,2.4,1.7.39,2.95-10.15,6.29-20,13-30.4,19Z"/></g></g></g></svg>