<svg xmlns="http://www.w3.org/2000/svg" viewBox="0 0 82 82"><defs><style>.cls-1{fill:#fff;}</style></defs><g id="Capa_2" data-name="Capa 2"><g id="Layer_1" data-name="Layer 1"><g id="eMlgdL.tif"><path class="cls-1" d="M18.59,0c3.16,1.26,5.23,3.87,7.57,6.15s4.71,4.56,7,6.94c4.41,4.65,3.2,10.72-2.61,13.38C25.9,28.58,24.29,32,26.2,36.68A34,34,0,0,0,44.93,55.55c4.68,2,8.36.3,10.54-4.29,2.35-4.93,8.09-6.87,12-3.46C72.68,52.4,78,57.05,82,62.87v4.92A39.35,39.35,0,0,1,67.79,82H59a69.42,69.42,0,0,1-10.72-3.91A97.1,97.1,0,0,1,26,62.2C14,51.07,4.13,38.63,0,22.41V14.76C2.67,8.33,8.21,4.44,13.12,0Z"/></g></g></g></svg>