<svg xmlns="http://www.w3.org/2000/svg" viewBox="0 0 82 81.91"><defs><style>.cls-1{fill:#fff;}</style></defs><g id="Capa_2" data-name="Capa 2"><g id="Layer_1" data-name="Layer 1"><g id="ojJjGk.tif"><path class="cls-1" d="M0,37.34a58.29,58.29,0,0,1,1.06-6.16A41.23,41.23,0,0,1,9,15.17a.65.65,0,0,1,1-.2,50,50,0,0,0,10,4c.56.16.59.42.46.91a75.19,75.19,0,0,0-2,9.54,80.23,80.23,0,0,0-.76,9.16c0,1,0,1-.95,1H.62l-.62,0Z"/><path class="cls-1" d="M82,39.54l-4.61,0H65.22c-.56,0-.87-.08-.89-.77a76.3,76.3,0,0,0-2.69-18.65c-.27-1-.26-1,.7-1.28a48.36,48.36,0,0,0,9.49-3.8.86.86,0,0,1,1.31.25,41.32,41.32,0,0,1,8.6,20.18c.09.71.17,1.41.26,2.11Z"/><path class="cls-1" d="M0,42.43c.23,0,.46,0,.68,0,5.37,0,10.73,0,16.09,0,.71,0,.88.22.9.91a75,75,0,0,0,2.62,18.24,2.64,2.64,0,0,0,.13.46c.26.61,0,.85-.59,1a46.75,46.75,0,0,0-6.66,2.38A30.5,30.5,0,0,0,10,66.89a.71.71,0,0,1-1.09-.21A41.18,41.18,0,0,1,.78,49.44C.42,47.76.23,46.05,0,44.35Z"/><path class="cls-1" d="M82,44.35c-.26,1.88-.48,3.77-.9,5.62a41.44,41.44,0,0,1-8,16.7.71.71,0,0,1-1.08.22A47.38,47.38,0,0,0,62.23,63c-.66-.18-.84-.43-.64-1.11A72.33,72.33,0,0,0,63.89,50c.27-2.29.4-4.6.45-6.92,0-.49.11-.75.68-.75,5.55,0,11.09,0,16.64,0a2,2,0,0,1,.34,0Z"/><path class="cls-1" d="M39.21,81.91c-5.11-1.14-8.33-4.65-11-8.82a40.49,40.49,0,0,1-3.77-7.78c-.18-.46-.09-.66.4-.76a86.83,86.83,0,0,1,9.51-1.4c1.5-.12,3-.19,4.52-.26.55,0,.79.14.79.73q0,9.15,0,18.29Z"/><path class="cls-1" d="M42.38,81.91q0-9.14,0-18.29c0-.66.31-.74.86-.73a80,80,0,0,1,14,1.66c.41.09.61.22.43.7a35.7,35.7,0,0,1-7.11,12.13,14.89,14.89,0,0,1-7.7,4.53Z"/><path class="cls-1" d="M30,39.56c-2.91,0-5.82,0-8.73,0-.64,0-.88-.18-.87-.86a72.51,72.51,0,0,1,2.73-18.28c.14-.48.36-.57.79-.47A77,77,0,0,0,32.9,21.4c1.94.19,3.88.29,5.82.35.89,0,.92,0,.92.95V38.64c0,.9,0,.92-.94.92Z"/><path class="cls-1" d="M52,39.56c-2.91,0-5.82,0-8.73,0-.65,0-.87-.21-.87-.87q0-8,0-16.08c0-.65.2-.88.86-.89A74.47,74.47,0,0,0,57.71,20c.95-.21.95-.2,1.21.73a72.64,72.64,0,0,1,2.36,13.16c.13,1.55.25,3.1.26,4.66,0,1,0,1-1,1Z"/><path class="cls-1" d="M30.06,42.38h8.6c1,0,1,0,1,.94V59.21c0,.86,0,.93-.94,1-1.79,0-3.57.12-5.35.28a75.71,75.71,0,0,0-9.23,1.45c-.61.13-.85,0-1-.6a73.56,73.56,0,0,1-2.39-13.24c-.14-1.62-.24-3.24-.28-4.87,0-.62.18-.83.82-.82C24.19,42.4,27.13,42.38,30.06,42.38Z"/><path class="cls-1" d="M52,42.38c2.89,0,5.78,0,8.66,0,.7,0,.91.19.9.89a74,74,0,0,1-2.72,18.17c-.13.47-.32.61-.82.5a78,78,0,0,0-9.84-1.52c-1.57-.15-3.16-.15-4.74-.22-1,0-1.08-.07-1.08-1.11V43.39c0-1,0-1,1-1Z"/><path class="cls-1" d="M39.64,9.5c0,2.91,0,5.83,0,8.74,0,.59-.21.82-.81.8a81,81,0,0,1-13.62-1.62c-1-.22-1-.22-.65-1.2A35.84,35.84,0,0,1,30.65,5.43,15.58,15.58,0,0,1,38,.28c1.66-.49,1.67-.49,1.67,1.24Z"/><path class="cls-1" d="M42.36,9.45V.86c0-.87.07-.92.91-.75A13.78,13.78,0,0,1,50.4,4.4a33.48,33.48,0,0,1,6.84,11.36c.63,1.62.77,1.42-1,1.77a71.1,71.1,0,0,1-12,1.42c-.34,0-.68.06-1,.08-.77,0-.88-.07-.88-.84Z"/><path class="cls-1" d="M30.66,80.7a29.05,29.05,0,0,1-4-1.25A40.82,40.82,0,0,1,11.89,70c-.62-.61-.61-.65.16-1a50.15,50.15,0,0,1,8.78-3.36c.46-.13.7-.09.87.42A36,36,0,0,0,30.44,80.2.51.51,0,0,1,30.66,80.7Z"/><path class="cls-1" d="M51.32,1.29c.23-.13.44,0,.65.05A40.71,40.71,0,0,1,70.1,12c.62.63.62.64-.15,1a50.21,50.21,0,0,1-8.71,3.35c-.51.15-.78.09-1-.47A36.34,36.34,0,0,0,51.62,1.73C51.5,1.61,51.32,1.51,51.32,1.29Z"/><path class="cls-1" d="M30.75,1.31,29.41,2.76a35.72,35.72,0,0,0-7.68,13.05c-.18.53-.41.67-.95.51a52.85,52.85,0,0,1-8.84-3.39c-.51-.25-.58-.44-.16-.88A41.07,41.07,0,0,1,30.14,1.3.69.69,0,0,1,30.75,1.31Z"/><path class="cls-1" d="M51.25,80.58c.72-.78,1.42-1.52,2.09-2.29a35,35,0,0,0,6.88-12.1c.22-.66.49-.77,1.14-.58A52.21,52.21,0,0,1,70,69c.71.35.72.4.19.94A41.07,41.07,0,0,1,51.75,80.62.54.54,0,0,1,51.25,80.58Z"/></g></g></g></svg>