<svg xmlns="http://www.w3.org/2000/svg" viewBox="0 0 74.08 45.17"><defs><style>.cls-1{fill:#811517;}.cls-2{fill:#fff;}.cls-3{fill:#07411f;}</style></defs><g id="Capa_2" data-name="Capa 2"><g id="Layer_1" data-name="Layer 1"><path class="cls-1" d="M31.5.3a13.2,13.2,0,0,0-8.2,5.88,13.14,13.14,0,0,0-1.51,10,18.6,18.6,0,0,0,1.55,3.92,22.12,22.12,0,0,0,4.49,6.21,12.9,12.9,0,0,0,6.76,3.44c4.65.69,9.38-1.88,12.18-5.66S50.68,15.5,51,10.81a9.51,9.51,0,0,0-.31-3.61,7.67,7.67,0,0,0-2.29-3.15C44.09.33,37.09-.56,31.5.3"/><path class="cls-2" d="M41.56,22.56c-2.76,2.07-6,1.5-9.09.59-3.31-1-6.13-2.78-7-6.34A8.3,8.3,0,0,1,29.29,8c2.54-1.43,6.18-1.2,8.1,1.16a4.49,4.49,0,0,1,1,4.05,4,4,0,0,1-2.7,2.61,4.13,4.13,0,0,1-3.58-.55c-1.42-1.07-1.5-2.81-.95-4.37,1-2.8,3.35-5.74,6.39-6.33a7.61,7.61,0,0,1,7.58,3.48,8.75,8.75,0,0,1,1.32,5.68,17.43,17.43,0,0,1-1.36,4.46A9.85,9.85,0,0,1,39,23.82c-.09,0,.09.8,0,.83a11,11,0,0,0,4.43-2.74,10.45,10.45,0,0,0,1.85-3.24,14.86,14.86,0,0,0,1.13-8.13A8.07,8.07,0,0,0,39,3.67c-3.87-.12-7.06,3.55-8,7.05-.63,2.41-.15,5.63,2.78,6.1a4.27,4.27,0,0,0,4-1.54,5.27,5.27,0,0,0,.83-3.37,5.7,5.7,0,0,0-6.15-5.59c-3.95.16-6.7,3.55-7.13,7.3-.4,3.5.62,7.13,3.82,9a18.57,18.57,0,0,0,6.12,2,7.85,7.85,0,0,0,6.29-1.28c.13-.1-.13-.73,0-.83Z"/><path class="cls-2" d="M38.6,10.62c-1.76-.46-3.85,0-4.39,1.92a7.75,7.75,0,0,0-.17,2,3.33,3.33,0,0,0,.88,2.49,4.64,4.64,0,0,0,5.35.95,3.76,3.76,0,0,0,2-3.56A3.86,3.86,0,0,0,41,12.24a7.47,7.47,0,0,0-2.41-1.62s-.05.39,0,.42a6.62,6.62,0,0,1,3.3,2.78,2.81,2.81,0,0,1,.32.85,2,2,0,0,1-.21,1,4.09,4.09,0,0,1-1.45,1.74,4.25,4.25,0,0,1-4.61,0,3.37,3.37,0,0,1-1.72-1.84,4.6,4.6,0,0,1,.06-2.84c.63-1.8,2.67-2.1,4.31-1.67,0,0,0-.41,0-.42Z"/><path class="cls-1" d="M8.27,44.61c0,.37-.34.56-1,.56a2.08,2.08,0,0,1-1.77-.87,2,2,0,0,1-.35-.73q-.08-.34-.24-1.77a1.57,1.57,0,0,0-.59-1.21,3.07,3.07,0,0,0-1.65-.39v4.23c0,.18.15.29.46.34l.67,0c.12,0,.19,0,.19.1s-.09.12-.25.12H.33C.12,45,0,45,0,44.9s.14-.09.42-.1c.46,0,.7-.07.74-.16a1.22,1.22,0,0,0,.06-.53V36.7c0-.36,0-.57-.12-.64a1.42,1.42,0,0,0-.75-.13q-.36,0-.36-.12c0-.09.08-.13.23-.13H.36l1.92,0h.81c.39,0,.66,0,.81,0A3.67,3.67,0,0,1,6,36.24a1.76,1.76,0,0,1,.79,1.51A1.9,1.9,0,0,1,6,39.3a4.1,4.1,0,0,1-2.2.72c-.09,0-.14,0-.15,0s.05,0,.15,0a3.14,3.14,0,0,1,2.09,1,5.62,5.62,0,0,1,.76,2.7c.07.74.34,1.1.81,1.1.14,0,.21,0,.21-.08v0a.56.56,0,0,1-.07-.25c0-.18.1-.28.31-.28S8.27,44.38,8.27,44.61Zm-3-6.73Q5.28,36,3.48,36a1.26,1.26,0,0,0-.65.12.51.51,0,0,0-.17.43v3.41a3.2,3.2,0,0,0,2-.47A1.87,1.87,0,0,0,5.28,37.88Z"/><path class="cls-1" d="M18,40.41a4.74,4.74,0,0,1-1.3,3.38,4.17,4.17,0,0,1-3.17,1.38,4.48,4.48,0,0,1-3.35-1.4,4.78,4.78,0,0,1-1.36-3.46,4.71,4.71,0,0,1,1.3-3.43,4.5,4.5,0,0,1,3.35-1.33,4.25,4.25,0,0,1,3.23,1.39A4.93,4.93,0,0,1,18,40.41Zm-1.62.06a6,6,0,0,0-1.09-3.83,2.26,2.26,0,0,0-1.89-.87,2.36,2.36,0,0,0-1.79.66,5.57,5.57,0,0,0-1.17,4,6,6,0,0,0,.81,3.37,2.64,2.64,0,0,0,2.29,1.19,2.26,2.26,0,0,0,2.07-1.13A6.33,6.33,0,0,0,16.37,40.47Z"/><path class="cls-1" d="M25.38,42.39a2.51,2.51,0,0,1-.95,2,3.39,3.39,0,0,1-2.28.81,5.15,5.15,0,0,1-1.86-.44,1.32,1.32,0,0,0-.44-.12c-.11,0-.19.12-.21.37a.18.18,0,0,1-.19.19c-.1,0-.15-.05-.15-.16a.63.63,0,0,1,0-.16,12.08,12.08,0,0,0,.11-1.52q0-.13,0-.75a1.22,1.22,0,0,1,0-.21c0-.14.06-.21.17-.21s.17.11.21.33c.25,1.61,1.06,2.41,2.44,2.41a1.91,1.91,0,0,0,1.37-.46,1.73,1.73,0,0,0,.48-1.31,1.87,1.87,0,0,0-.47-1.28A4.79,4.79,0,0,0,22,40.8a6.08,6.08,0,0,1-1.91-1.23,2.08,2.08,0,0,1-.54-1.46,2.4,2.4,0,0,1,.78-1.84,2.76,2.76,0,0,1,2-.72,4.49,4.49,0,0,1,1.36.3,1.29,1.29,0,0,0,.45.11.3.3,0,0,0,.2-.05.6.6,0,0,0,.1-.28.15.15,0,0,1,.16-.14c.09,0,.14.06.14.16a.67.67,0,0,1,0,.16,5.78,5.78,0,0,0-.05.78,5.38,5.38,0,0,0,.08,1v.22c0,.1,0,.15-.13.15s-.18-.11-.22-.31a2.32,2.32,0,0,0-.75-1.33,2,2,0,0,0-1.33-.53,1.59,1.59,0,0,0-1.15.43,1.61,1.61,0,0,0-.42,1.17,1.69,1.69,0,0,0,.62,1.38,7.5,7.5,0,0,0,1.5.84,6.11,6.11,0,0,1,2,1.28A2.12,2.12,0,0,1,25.38,42.39Z"/><path class="cls-1" d="M33.92,42.85s0,.25,0,.66,0,.79,0,1.15v.45Q32.45,45,28.25,45h-1.8c-.19,0-.28,0-.28-.1s0-.08.09-.09l.55,0q.38,0,.45-.15a1.35,1.35,0,0,0,.08-.63V36.45c0-.26,0-.42-.12-.47a2.26,2.26,0,0,0-.79-.07c-.15,0-.23,0-.23-.12s.11-.11.32-.11h6.13a6.3,6.3,0,0,0,.79,0c0,.38.07.91.13,1.59l.06.58a.82.82,0,0,1,0,.18.12.12,0,0,1-.13.13c-.11,0-.19-.11-.23-.34a2.21,2.21,0,0,0-.9-1.54A7.08,7.08,0,0,0,30,36H28.77v3.95h.35a4.93,4.93,0,0,0,2-.23c.23-.15.39-.6.48-1.33,0-.19.07-.28.16-.28s.16.08.16.24,0,.4,0,.71,0,.55,0,.71c0,1,0,1.62.05,2,0,.08,0,.16,0,.22s-.06.18-.16.18-.11,0-.14-.12-.06-.32-.12-.74a1.06,1.06,0,0,0-.71-1,6,6,0,0,0-1.35-.08h-.65v4.5a30,30,0,0,0,3.74-.12c.63-.14,1-.7,1.08-1.7,0-.22.08-.33.19-.33S33.92,42.66,33.92,42.85Z"/><path class="cls-3" d="M46.62,37.92c0,.13,0,.19-.12.19s-.15-.11-.18-.34a2.54,2.54,0,0,0-.63-1.43,1.63,1.63,0,0,0-1-.35q-.23,0-1,0c-.4,0-.87,0-1.42,0v4a5.09,5.09,0,0,0,2-.22c.26-.16.41-.6.47-1.32,0-.21.06-.31.15-.31s.13.06.13.2,0,.15,0,.2c0,.62,0,1.19,0,1.72s0,1.22,0,1.61a.71.71,0,0,1,0,.16c0,.11,0,.16-.13.16a.13.13,0,0,1-.13-.08s0-.26-.09-.62a1.48,1.48,0,0,0-.4-1,2.45,2.45,0,0,0-1.2-.2c-.31,0-.59,0-.83,0v4a.48.48,0,0,0,.29.5,2.27,2.27,0,0,0,.63,0c.13,0,.2,0,.2.1s-.09.12-.26.12H40.22c-.16,0-.24,0-.24-.1s.14-.12.44-.14.47-.06.52-.13A1.35,1.35,0,0,0,41,44V36.3c0-.16-.06-.26-.14-.3a2.2,2.2,0,0,0-.67-.08c-.14,0-.21,0-.21-.13s.08-.12.23-.12h3.53a25.44,25.44,0,0,0,2.66-.08c0,.11,0,.45.08,1,0,.38.06.71.1,1A2,2,0,0,1,46.62,37.92Z"/><path class="cls-3" d="M50.33,44.9c0,.07,0,.11-.16.11h-.12a15.11,15.11,0,0,0-1.75,0c-.22,0-.43,0-.65,0h-.51C47,45,47,45,47,44.89s.11-.11.34-.12.54-.05.6-.13a1.74,1.74,0,0,0,.09-.77V36.78a2.25,2.25,0,0,0-.06-.74c-.06-.09-.3-.14-.72-.16-.17,0-.25,0-.25-.09s.05-.11.16-.11h3c.14,0,.21,0,.21.11s-.19.11-.57.13c-.22,0-.35,0-.4.12a1.28,1.28,0,0,0-.07.57v7.17a2.65,2.65,0,0,0,.06.83c.09.1.37.16.84.17C50.28,44.78,50.33,44.82,50.33,44.9Z"/><path class="cls-3" d="M57.89,42.85s0,.25,0,.66,0,.79,0,1.15v.45c-.84-.06-2.51-.09-5-.09H51.24c-.16,0-.24,0-.24-.1a.08.08,0,0,1,.07-.09l.49,0c.23,0,.36-.07.41-.15A1.79,1.79,0,0,0,52,44V36.45c0-.26,0-.42-.11-.47a1.82,1.82,0,0,0-.7-.07q-.21,0-.21-.12c0-.07.1-.11.29-.11h5.45a5,5,0,0,0,.7,0q0,.57.12,1.59l.05.58a.92.92,0,0,1,0,.18c0,.09,0,.13-.11.13s-.16-.11-.21-.34a2.24,2.24,0,0,0-.79-1.54A5.66,5.66,0,0,0,54.37,36H53.31v3.95h.31a3.93,3.93,0,0,0,1.76-.23c.21-.15.35-.6.43-1.33,0-.19.06-.28.14-.28s.14.08.14.24,0,.4,0,.71,0,.55,0,.71c0,1,0,1.62,0,2a1.77,1.77,0,0,1,0,.22c0,.12-.05.18-.14.18s-.1,0-.12-.12-.06-.32-.11-.74a1.06,1.06,0,0,0-.63-1,4.71,4.71,0,0,0-1.2-.08h-.58v4.5a23.69,23.69,0,0,0,3.32-.12c.56-.14.89-.7,1-1.7,0-.22.08-.33.17-.33S57.89,42.66,57.89,42.85Z"/><path class="cls-3" d="M65.27,44c0,.23,0,.62,0,1.16h-.14l-.37,0c-.2,0-.42,0-.67,0l-5.34,0c-.14,0-.22,0-.22-.12s.12-.1.35-.12a1.42,1.42,0,0,0,.59-.11.86.86,0,0,0,.09-.51V36.61c0-.33,0-.53-.09-.58a1.67,1.67,0,0,0-.69-.08c-.17,0-.25-.05-.25-.15s0-.12.16-.12h.11c.29,0,.85,0,1.69,0l.45,0,.55,0h.14c.16,0,.23,0,.23.13s0,.09-.07.1a2,2,0,0,1-.44,0c-.25,0-.4,0-.44.13a1.82,1.82,0,0,0-.07.7V44.7l1,0a9.25,9.25,0,0,0,2.12-.17,1.19,1.19,0,0,0,.84-.6A3.06,3.06,0,0,0,65,42.76q0-.18.15-.18c.11,0,.16.07.15.2V44Z"/><path class="cls-3" d="M74.08,40.35A4.55,4.55,0,0,1,72.5,44a4.66,4.66,0,0,1-3.1,1H65.91c-.16,0-.24,0-.24-.13s.14-.12.41-.12.57-.07.66-.21a1.55,1.55,0,0,0,.05-.51V36.81a1.54,1.54,0,0,0-.1-.77c-.06-.07-.28-.11-.66-.11-.2,0-.3,0-.3-.14s.08-.11.22-.11h2.24a10.89,10.89,0,0,1,3.28.34,3.55,3.55,0,0,1,1.89,1.59A5.21,5.21,0,0,1,74.08,40.35Zm-1.44-.05A5.22,5.22,0,0,0,71.8,37a3.11,3.11,0,0,0-2.61-1,1.78,1.78,0,0,0-1,.18,1.49,1.49,0,0,0-.08.65V44a3.19,3.19,0,0,0,0,.45.25.25,0,0,0,.11.14,3.3,3.3,0,0,0,1.3.16,2.77,2.77,0,0,0,2.24-1A5.29,5.29,0,0,0,72.64,40.3Z"/></g></g></svg>